G04 EAGLE Gerber RS-274X export*
G75*
%MOMM*%
%FSLAX34Y34*%
%LPD*%
%INBottom Copper*%
%IPPOS*%
%AMOC8*
5,1,8,0,0,1.08239X$1,22.5*%
G01*
%ADD10C,1.524000*%
%ADD11C,1.790700*%
%ADD12C,2.400300*%
%ADD13P,1.484606X8X202.500000*%
%ADD14C,1.371600*%
%ADD15C,0.381000*%
%ADD16C,0.254000*%
%ADD17C,0.500000*%
%ADD18C,0.550000*%


D10*
X724535Y215900D03*
X724535Y241300D03*
X724535Y266700D03*
X724535Y292100D03*
X724535Y317500D03*
X724535Y342900D03*
X724535Y190500D03*
X724535Y165100D03*
X724535Y139700D03*
X724535Y114300D03*
X724535Y88900D03*
X724535Y63500D03*
X724535Y38100D03*
X724535Y368300D03*
X724535Y393700D03*
X876935Y215900D03*
X876935Y190500D03*
X876935Y165100D03*
X876935Y139700D03*
X876935Y114300D03*
X876935Y88900D03*
X876935Y241300D03*
X876935Y266700D03*
X876935Y292100D03*
X876935Y317500D03*
X876935Y342900D03*
X876935Y368300D03*
X876935Y393700D03*
X876935Y63500D03*
X876935Y38100D03*
D11*
X1121410Y82550D03*
D12*
X1089914Y114046D03*
X1089914Y51054D03*
X1152906Y51054D03*
X1152906Y114046D03*
D11*
X1121410Y298450D03*
D12*
X1089914Y329946D03*
X1089914Y266954D03*
X1152906Y266954D03*
X1152906Y329946D03*
D11*
X1512570Y82550D03*
D12*
X1481074Y114046D03*
X1481074Y51054D03*
X1544066Y51054D03*
X1544066Y114046D03*
D11*
X1512570Y298450D03*
D12*
X1481074Y329946D03*
X1481074Y266954D03*
X1544066Y266954D03*
X1544066Y329946D03*
D11*
X88900Y298450D03*
D12*
X57404Y329946D03*
X57404Y266954D03*
X120396Y266954D03*
X120396Y329946D03*
D11*
X88900Y726440D03*
D12*
X57404Y757936D03*
X57404Y694944D03*
X120396Y694944D03*
X120396Y757936D03*
D11*
X480060Y298450D03*
D12*
X448564Y329946D03*
X448564Y266954D03*
X511556Y266954D03*
X511556Y329946D03*
D11*
X88900Y82550D03*
D12*
X57404Y114046D03*
X57404Y51054D03*
X120396Y51054D03*
X120396Y114046D03*
D11*
X480060Y82550D03*
D12*
X448564Y114046D03*
X448564Y51054D03*
X511556Y51054D03*
X511556Y114046D03*
D11*
X692150Y820420D03*
D12*
X660654Y851916D03*
X660654Y788924D03*
X723646Y788924D03*
X723646Y851916D03*
D11*
X904240Y820420D03*
D12*
X872744Y851916D03*
X872744Y788924D03*
X935736Y788924D03*
X935736Y851916D03*
D11*
X692150Y593090D03*
D12*
X660654Y624586D03*
X660654Y561594D03*
X723646Y561594D03*
X723646Y624586D03*
D11*
X904240Y593090D03*
D12*
X872744Y624586D03*
X872744Y561594D03*
X935736Y561594D03*
X935736Y624586D03*
D11*
X480060Y511810D03*
D12*
X448564Y543306D03*
X448564Y480314D03*
X511556Y480314D03*
X511556Y543306D03*
D11*
X480060Y726440D03*
D12*
X448564Y757936D03*
X448564Y694944D03*
X511556Y694944D03*
X511556Y757936D03*
D11*
X88900Y511810D03*
D12*
X57404Y543306D03*
X57404Y480314D03*
X120396Y480314D03*
X120396Y543306D03*
D11*
X1512570Y726440D03*
D12*
X1481074Y757936D03*
X1481074Y694944D03*
X1544066Y694944D03*
X1544066Y757936D03*
D11*
X1121410Y726440D03*
D12*
X1089914Y757936D03*
X1089914Y694944D03*
X1152906Y694944D03*
X1152906Y757936D03*
D11*
X1121410Y511810D03*
D12*
X1089914Y543306D03*
X1089914Y480314D03*
X1152906Y480314D03*
X1152906Y543306D03*
D11*
X1512570Y511810D03*
D12*
X1481074Y543306D03*
X1481074Y480314D03*
X1544066Y480314D03*
X1544066Y543306D03*
D13*
X948690Y242570D03*
X948690Y217170D03*
X923290Y242570D03*
X923290Y217170D03*
D14*
X673608Y369570D02*
X659892Y369570D01*
X659892Y394970D02*
X673608Y394970D01*
D15*
X438150Y341630D02*
X267970Y341630D01*
X438150Y341630D02*
X441960Y345440D01*
X706120Y345440D01*
X722630Y328930D01*
X864870Y328930D01*
X876300Y317500D01*
D16*
X876935Y317500D01*
D17*
X267970Y341630D03*
D15*
X876935Y317500D02*
X899160Y317500D01*
X934720Y353060D01*
X988060Y353060D01*
D18*
X988060Y353060D03*
X1273810Y36830D03*
D15*
X1301750Y36830D01*
D18*
X1301750Y36830D03*
D16*
X266700Y350520D02*
X266700Y370840D01*
X266700Y350520D02*
X261620Y345440D01*
X261620Y339090D01*
X302260Y298450D01*
X480060Y298450D01*
D17*
X266700Y370840D03*
D16*
X1262380Y567690D02*
X1262380Y598170D01*
X1262380Y567690D02*
X947420Y252730D01*
X944880Y252730D01*
X933450Y241300D01*
X933450Y238760D01*
X922020Y227330D01*
X904240Y227330D01*
X878840Y201930D01*
X812800Y201930D01*
X725170Y114300D01*
X724535Y114300D01*
D17*
X1262380Y598170D03*
D16*
X1259840Y608330D02*
X1299210Y608330D01*
X1259840Y608330D02*
X878840Y227330D01*
X828040Y227330D01*
X726440Y125730D01*
X720090Y125730D01*
X713740Y119380D01*
X713740Y99060D01*
X723900Y88900D01*
X724535Y88900D01*
D17*
X1299210Y608330D03*
D16*
X1052830Y182880D02*
X986790Y182880D01*
X878840Y74930D01*
X720090Y74930D01*
X713740Y68580D01*
X713740Y48260D01*
X723900Y38100D01*
X724535Y38100D01*
D17*
X1052830Y182880D03*
D16*
X1334770Y184150D02*
X1339850Y179070D01*
X1339850Y175260D01*
X1230630Y66040D01*
X905510Y66040D01*
X877570Y38100D01*
X876935Y38100D01*
D17*
X1334770Y184150D03*
D16*
X1333500Y176530D02*
X1005840Y176530D01*
X881380Y52070D01*
X736600Y52070D01*
X725170Y63500D01*
X724535Y63500D01*
D17*
X1333500Y176530D03*
D16*
X1268730Y487680D02*
X1268730Y590550D01*
X1268730Y487680D02*
X895350Y114300D01*
X876935Y114300D01*
D17*
X1268730Y590550D03*
D16*
X1256030Y518160D02*
X958850Y220980D01*
X958850Y213360D01*
X885190Y139700D01*
X876935Y139700D01*
D17*
X1256030Y518160D03*
M02*
