G04 EAGLE Gerber RS-274X export*
G75*
%MOMM*%
%FSLAX34Y34*%
%LPD*%
%INSolderpaste Top*%
%IPPOS*%
%AMOC8*
5,1,8,0,0,1.08239X$1,22.5*%
G01*
%ADD10R,0.420000X0.460000*%
%ADD11R,1.475000X0.450000*%
%ADD12R,0.800000X0.800000*%
%ADD13R,1.150000X1.150000*%


D10*
X1268730Y621540D03*
X1268730Y628140D03*
X1363980Y628140D03*
X1363980Y621540D03*
X1254760Y621540D03*
X1254760Y628140D03*
X330200Y348740D03*
X330200Y342140D03*
X340360Y348740D03*
X340360Y342140D03*
X238760Y342140D03*
X238760Y348740D03*
X1256030Y169670D03*
X1256030Y163070D03*
X227330Y342140D03*
X227330Y348740D03*
X1376680Y628140D03*
X1376680Y621540D03*
X1266190Y169670D03*
X1266190Y163070D03*
D11*
X1287610Y183330D03*
X1287610Y176830D03*
X1287610Y170330D03*
X1287610Y163830D03*
X1287610Y157330D03*
X1287610Y150830D03*
X1287610Y144330D03*
X1346370Y144330D03*
X1346370Y150830D03*
X1346370Y157330D03*
X1346370Y163830D03*
X1346370Y170330D03*
X1346370Y176830D03*
X1346370Y183330D03*
D12*
X1432560Y741560D03*
X1432560Y726560D03*
X1200150Y313570D03*
X1200150Y298570D03*
X1433830Y68700D03*
X1433830Y83700D03*
X1433830Y313570D03*
X1433830Y298570D03*
X400050Y97670D03*
X400050Y82670D03*
X391160Y526930D03*
X391160Y511930D03*
X393700Y741560D03*
X393700Y726560D03*
X167640Y526930D03*
X167640Y511930D03*
X822960Y606940D03*
X822960Y591940D03*
X773430Y835540D03*
X773430Y820540D03*
X1198880Y741560D03*
X1198880Y726560D03*
X825500Y835540D03*
X825500Y820540D03*
X770890Y608210D03*
X770890Y593210D03*
X1200150Y526930D03*
X1200150Y511930D03*
X1436370Y499230D03*
X1436370Y514230D03*
X168910Y313570D03*
X168910Y298570D03*
X167640Y742830D03*
X167640Y727830D03*
X398780Y283330D03*
X398780Y298330D03*
X170180Y97670D03*
X170180Y82670D03*
X1200150Y68700D03*
X1200150Y83700D03*
D11*
X1287610Y628080D03*
X1287610Y621580D03*
X1287610Y615080D03*
X1287610Y608580D03*
X1287610Y602080D03*
X1287610Y595580D03*
X1287610Y589080D03*
X1287610Y582580D03*
X1287610Y576080D03*
X1287610Y569580D03*
X1287610Y563080D03*
X1287610Y556580D03*
X1346370Y556580D03*
X1346370Y563080D03*
X1346370Y569580D03*
X1346370Y576080D03*
X1346370Y582580D03*
X1346370Y589080D03*
X1346370Y595580D03*
X1346370Y602080D03*
X1346370Y608580D03*
X1346370Y615080D03*
X1346370Y621580D03*
X1346370Y628080D03*
X313860Y342200D03*
X313860Y348700D03*
X313860Y355200D03*
X313860Y361700D03*
X313860Y368200D03*
X313860Y374700D03*
X313860Y381200D03*
X313860Y387700D03*
X313860Y394200D03*
X313860Y400700D03*
X313860Y407200D03*
X313860Y413700D03*
X255100Y413700D03*
X255100Y407200D03*
X255100Y400700D03*
X255100Y394200D03*
X255100Y387700D03*
X255100Y381200D03*
X255100Y374700D03*
X255100Y368200D03*
X255100Y361700D03*
X255100Y355200D03*
X255100Y348700D03*
X255100Y342200D03*
D13*
X881060Y504190D03*
X904560Y504190D03*
X1257620Y739140D03*
X1234120Y739140D03*
X1267780Y527050D03*
X1244280Y527050D03*
X1373820Y501650D03*
X1397320Y501650D03*
X231460Y312420D03*
X207960Y312420D03*
X239080Y742950D03*
X215580Y742950D03*
X336230Y281940D03*
X359730Y281940D03*
X234000Y97790D03*
X210500Y97790D03*
X1261430Y69000D03*
X1237930Y69000D03*
X1258890Y311150D03*
X1235390Y311150D03*
X1370010Y70270D03*
X1393510Y70270D03*
X904560Y462280D03*
X881060Y462280D03*
X1372550Y311150D03*
X1396050Y311150D03*
X337500Y97790D03*
X361000Y97790D03*
X326070Y527050D03*
X349570Y527050D03*
X324800Y741680D03*
X348300Y741680D03*
X231460Y527050D03*
X207960Y527050D03*
X825500Y674690D03*
X825500Y651190D03*
X724850Y900430D03*
X748350Y900430D03*
X872810Y900430D03*
X849310Y900430D03*
X770890Y673420D03*
X770890Y649920D03*
X715330Y737870D03*
X691830Y737870D03*
X691830Y695960D03*
X715330Y695960D03*
X881060Y735330D03*
X904560Y735330D03*
X904560Y697230D03*
X881060Y697230D03*
X715330Y508000D03*
X691830Y508000D03*
X691830Y464820D03*
X715330Y464820D03*
X1371280Y740410D03*
X1394780Y740410D03*
M02*
