M48
;GenerationSoftware,Autodesk,EAGLE,9.6.2*%
;CreationDate,2025-02-28T00:46:55Z*%
FMAT,2
ICI,OFF
METRIC,TZ,000.000
T7C0.300
T6C0.350
T5C0.914
T4C1.016
T3C1.194
T2C1.600
%
G90
M71
T2
X12040Y5105
X66065Y62459
X93574Y85192
X93574Y78892
X87274Y78892
X87274Y85192
X72365Y85192
X72365Y78892
X66065Y78892
X66065Y85192
X51156Y11405
X51156Y5105
X44856Y5105
X44856Y11405
X12040Y11405
X66065Y56159
X5740Y5105
X5740Y11405
X51156Y32995
X51156Y26695
X44856Y26695
X44856Y32995
X12040Y75794
X12040Y69494
X5740Y69494
X12040Y32995
X12040Y26695
X5740Y26695
X5740Y32995
X154407Y32995
X5740Y54331
X115291Y48031
X108991Y48031
X108991Y54331
X115291Y75794
X115291Y69494
X108991Y69494
X108991Y75794
X154407Y75794
X154407Y69494
X148107Y69494
X148107Y75794
X12040Y54331
X12040Y48031
X5740Y48031
X5740Y75794
X51156Y75794
X51156Y69494
X44856Y69494
X44856Y75794
X51156Y54331
X51156Y48031
X44856Y48031
X44856Y54331
X93574Y62459
X93574Y56159
X87274Y56159
X87274Y62459
X72365Y62459
X72365Y56159
X148107Y26695
X154407Y26695
X115291Y54331
X148107Y54331
X148107Y48031
X154407Y48031
X154407Y54331
X108991Y11405
X108991Y5105
X115291Y5105
X115291Y11405
X108991Y32995
X108991Y26695
X115291Y26695
X115291Y32995
X148107Y11405
X148107Y5105
X154407Y5105
X154407Y11405
X148107Y32995
T3
X48006Y29845
X48006Y72644
X48006Y51181
X90424Y59309
X8890Y51181
X69215Y59309
X151257Y72644
X8890Y29845
X90424Y82042
X151257Y51181
X112141Y72644
X69215Y82042
X112141Y8255
X8890Y72644
X151257Y29845
X151257Y8255
X48006Y8255
X8890Y8255
X112141Y51181
X112141Y29845
T4
X72454Y13970
X72454Y16510
X72454Y19050
X72454Y34290
X72454Y31750
X72454Y29210
X72454Y26670
X87693Y11430
X72454Y24130
X72454Y21590
X72454Y8890
X87693Y3810
X87693Y6350
X87693Y39370
X87693Y36830
X87693Y34290
X87693Y31750
X87693Y29210
X87693Y26670
X87693Y24130
X87693Y8890
X87693Y13970
X87693Y16510
X87693Y19050
X87693Y21590
X72454Y39370
X72454Y36830
X72454Y3810
X72454Y6350
X72454Y11430
T5
X94869Y24257
X94869Y21717
X66675Y39497
X92329Y24257
X92329Y21717
X66675Y36957
T6
X130175Y3683
X127381Y3683
X98806Y35306
T7
X125603Y51816
X126873Y59055
X133350Y17653
X133477Y18415
X105283Y18288
X129921Y60833
X126238Y59817
X26670Y37084
X26797Y34163
M30